<mxfile host="Electron" agent="Mozilla/5.0 (Windows NT 10.0; Win64; x64) AppleWebKit/537.36 (KHTML, like Gecko) draw.io/26.0.9 Chrome/128.0.6613.186 Electron/32.2.5 Safari/537.36" version="26.0.9">
  <diagram name="Page-1" id="7fFDCd_T8r9bz3XegqM8">
    <mxGraphModel dx="1195" dy="697" grid="1" gridSize="10" guides="1" tooltips="1" connect="1" arrows="1" fold="1" page="1" pageScale="1" pageWidth="850" pageHeight="1100" math="0" shadow="0">
      <root>
        <mxCell id="0" />
        <mxCell id="1" parent="0" />
        <mxCell id="ERHW8LR5gOBoUxM93l3d-7" style="rounded=0;orthogonalLoop=1;jettySize=auto;html=1;exitX=0;exitY=0.5;exitDx=0;exitDy=0;entryX=1;entryY=0.5;entryDx=0;entryDy=0;endArrow=none;startFill=0;" edge="1" parent="1" source="ERHW8LR5gOBoUxM93l3d-1" target="ERHW8LR5gOBoUxM93l3d-2">
          <mxGeometry relative="1" as="geometry" />
        </mxCell>
        <mxCell id="ERHW8LR5gOBoUxM93l3d-23" value="N" style="edgeLabel;html=1;align=center;verticalAlign=middle;resizable=0;points=[];" vertex="1" connectable="0" parent="ERHW8LR5gOBoUxM93l3d-7">
          <mxGeometry x="0.1095" y="-1" relative="1" as="geometry">
            <mxPoint as="offset" />
          </mxGeometry>
        </mxCell>
        <mxCell id="ERHW8LR5gOBoUxM93l3d-1" value="Có" style="shape=rhombus;perimeter=rhombusPerimeter;whiteSpace=wrap;html=1;align=center;" vertex="1" parent="1">
          <mxGeometry x="320" y="150" width="120" height="60" as="geometry" />
        </mxCell>
        <mxCell id="ERHW8LR5gOBoUxM93l3d-8" style="rounded=0;orthogonalLoop=1;jettySize=auto;html=1;exitX=0.5;exitY=1;exitDx=0;exitDy=0;entryX=0.5;entryY=0;entryDx=0;entryDy=0;endArrow=none;startFill=0;" edge="1" parent="1" source="ERHW8LR5gOBoUxM93l3d-2" target="ERHW8LR5gOBoUxM93l3d-5">
          <mxGeometry relative="1" as="geometry" />
        </mxCell>
        <mxCell id="ERHW8LR5gOBoUxM93l3d-48" value="1" style="edgeLabel;html=1;align=center;verticalAlign=middle;resizable=0;points=[];" vertex="1" connectable="0" parent="ERHW8LR5gOBoUxM93l3d-8">
          <mxGeometry x="-0.0533" y="1" relative="1" as="geometry">
            <mxPoint as="offset" />
          </mxGeometry>
        </mxCell>
        <mxCell id="ERHW8LR5gOBoUxM93l3d-25" style="rounded=0;orthogonalLoop=1;jettySize=auto;html=1;exitX=0.5;exitY=0;exitDx=0;exitDy=0;entryX=0.5;entryY=1;entryDx=0;entryDy=0;endArrow=none;startFill=0;" edge="1" parent="1" source="ERHW8LR5gOBoUxM93l3d-2" target="ERHW8LR5gOBoUxM93l3d-24">
          <mxGeometry relative="1" as="geometry" />
        </mxCell>
        <mxCell id="ERHW8LR5gOBoUxM93l3d-27" style="rounded=0;orthogonalLoop=1;jettySize=auto;html=1;entryX=1;entryY=0.5;entryDx=0;entryDy=0;endArrow=none;endFill=1;startFill=0;" edge="1" parent="1" source="ERHW8LR5gOBoUxM93l3d-2" target="ERHW8LR5gOBoUxM93l3d-14">
          <mxGeometry relative="1" as="geometry" />
        </mxCell>
        <mxCell id="ERHW8LR5gOBoUxM93l3d-29" style="rounded=0;orthogonalLoop=1;jettySize=auto;html=1;exitX=0;exitY=1;exitDx=0;exitDy=0;entryX=1;entryY=0;entryDx=0;entryDy=0;endArrow=none;startFill=0;" edge="1" parent="1" source="ERHW8LR5gOBoUxM93l3d-2" target="ERHW8LR5gOBoUxM93l3d-28">
          <mxGeometry relative="1" as="geometry" />
        </mxCell>
        <mxCell id="ERHW8LR5gOBoUxM93l3d-2" value="&lt;span style=&quot;font-size: 14px;&quot;&gt;Chat&lt;/span&gt;" style="whiteSpace=wrap;html=1;align=center;" vertex="1" parent="1">
          <mxGeometry x="140" y="155" width="120" height="50" as="geometry" />
        </mxCell>
        <mxCell id="ERHW8LR5gOBoUxM93l3d-47" style="rounded=0;orthogonalLoop=1;jettySize=auto;html=1;exitX=0.25;exitY=1;exitDx=0;exitDy=0;entryX=0.5;entryY=0;entryDx=0;entryDy=0;endArrow=none;startFill=0;" edge="1" parent="1" source="ERHW8LR5gOBoUxM93l3d-3" target="ERHW8LR5gOBoUxM93l3d-46">
          <mxGeometry relative="1" as="geometry" />
        </mxCell>
        <mxCell id="ERHW8LR5gOBoUxM93l3d-3" value="&lt;span style=&quot;font-size: 14px;&quot;&gt;Message&lt;/span&gt;" style="whiteSpace=wrap;html=1;align=center;" vertex="1" parent="1">
          <mxGeometry x="320" y="390" width="120" height="50" as="geometry" />
        </mxCell>
        <mxCell id="ERHW8LR5gOBoUxM93l3d-6" style="rounded=0;orthogonalLoop=1;jettySize=auto;html=1;exitX=0;exitY=0.5;exitDx=0;exitDy=0;entryX=1;entryY=0.5;entryDx=0;entryDy=0;endArrow=none;startFill=0;" edge="1" parent="1" source="ERHW8LR5gOBoUxM93l3d-4" target="ERHW8LR5gOBoUxM93l3d-1">
          <mxGeometry relative="1" as="geometry" />
        </mxCell>
        <mxCell id="ERHW8LR5gOBoUxM93l3d-22" value="N" style="edgeLabel;html=1;align=center;verticalAlign=middle;resizable=0;points=[];" vertex="1" connectable="0" parent="ERHW8LR5gOBoUxM93l3d-6">
          <mxGeometry x="0.1464" y="1" relative="1" as="geometry">
            <mxPoint as="offset" />
          </mxGeometry>
        </mxCell>
        <mxCell id="ERHW8LR5gOBoUxM93l3d-16" style="rounded=0;orthogonalLoop=1;jettySize=auto;html=1;exitX=1;exitY=0.5;exitDx=0;exitDy=0;entryX=0;entryY=0.5;entryDx=0;entryDy=0;endArrow=none;startFill=0;" edge="1" parent="1" source="ERHW8LR5gOBoUxM93l3d-4" target="ERHW8LR5gOBoUxM93l3d-11">
          <mxGeometry relative="1" as="geometry" />
        </mxCell>
        <mxCell id="ERHW8LR5gOBoUxM93l3d-17" style="rounded=0;orthogonalLoop=1;jettySize=auto;html=1;exitX=1;exitY=0.75;exitDx=0;exitDy=0;entryX=0;entryY=0;entryDx=0;entryDy=0;endArrow=none;endFill=1;startFill=0;" edge="1" parent="1" source="ERHW8LR5gOBoUxM93l3d-4" target="ERHW8LR5gOBoUxM93l3d-12">
          <mxGeometry relative="1" as="geometry" />
        </mxCell>
        <mxCell id="ERHW8LR5gOBoUxM93l3d-18" style="rounded=0;orthogonalLoop=1;jettySize=auto;html=1;exitX=0.75;exitY=1;exitDx=0;exitDy=0;entryX=0.5;entryY=0;entryDx=0;entryDy=0;endArrow=none;startFill=0;" edge="1" parent="1" source="ERHW8LR5gOBoUxM93l3d-4" target="ERHW8LR5gOBoUxM93l3d-13">
          <mxGeometry relative="1" as="geometry" />
        </mxCell>
        <mxCell id="ERHW8LR5gOBoUxM93l3d-51" style="rounded=0;orthogonalLoop=1;jettySize=auto;html=1;exitX=0;exitY=1;exitDx=0;exitDy=0;entryX=0.5;entryY=0;entryDx=0;entryDy=0;endArrow=none;startFill=0;" edge="1" parent="1" source="ERHW8LR5gOBoUxM93l3d-4" target="ERHW8LR5gOBoUxM93l3d-50">
          <mxGeometry relative="1" as="geometry" />
        </mxCell>
        <mxCell id="ERHW8LR5gOBoUxM93l3d-53" value="1" style="edgeLabel;html=1;align=center;verticalAlign=middle;resizable=0;points=[];" vertex="1" connectable="0" parent="ERHW8LR5gOBoUxM93l3d-51">
          <mxGeometry x="-0.0224" y="1" relative="1" as="geometry">
            <mxPoint x="-1" as="offset" />
          </mxGeometry>
        </mxCell>
        <mxCell id="ERHW8LR5gOBoUxM93l3d-4" value="&lt;span style=&quot;font-size: 14px;&quot;&gt;User&lt;/span&gt;" style="whiteSpace=wrap;html=1;align=center;" vertex="1" parent="1">
          <mxGeometry x="520" y="155" width="120" height="50" as="geometry" />
        </mxCell>
        <mxCell id="ERHW8LR5gOBoUxM93l3d-9" style="rounded=0;orthogonalLoop=1;jettySize=auto;html=1;entryX=0.5;entryY=0;entryDx=0;entryDy=0;endArrow=none;startFill=0;exitX=0.5;exitY=1;exitDx=0;exitDy=0;" edge="1" parent="1" source="ERHW8LR5gOBoUxM93l3d-5" target="ERHW8LR5gOBoUxM93l3d-3">
          <mxGeometry relative="1" as="geometry">
            <mxPoint x="400" y="400" as="sourcePoint" />
          </mxGeometry>
        </mxCell>
        <mxCell id="ERHW8LR5gOBoUxM93l3d-49" value="N" style="edgeLabel;html=1;align=center;verticalAlign=middle;resizable=0;points=[];" vertex="1" connectable="0" parent="ERHW8LR5gOBoUxM93l3d-9">
          <mxGeometry x="-0.2238" y="-1" relative="1" as="geometry">
            <mxPoint as="offset" />
          </mxGeometry>
        </mxCell>
        <mxCell id="ERHW8LR5gOBoUxM93l3d-5" value="Có" style="shape=rhombus;perimeter=rhombusPerimeter;whiteSpace=wrap;html=1;align=center;" vertex="1" parent="1">
          <mxGeometry x="180" y="260" width="120" height="60" as="geometry" />
        </mxCell>
        <mxCell id="ERHW8LR5gOBoUxM93l3d-10" value="Participants" style="ellipse;whiteSpace=wrap;html=1;align=center;" vertex="1" parent="1">
          <mxGeometry x="40" y="80" width="100" height="40" as="geometry" />
        </mxCell>
        <mxCell id="ERHW8LR5gOBoUxM93l3d-11" value="username" style="ellipse;whiteSpace=wrap;html=1;align=center;" vertex="1" parent="1">
          <mxGeometry x="700" y="150" width="100" height="40" as="geometry" />
        </mxCell>
        <mxCell id="ERHW8LR5gOBoUxM93l3d-12" value="email" style="ellipse;whiteSpace=wrap;html=1;align=center;" vertex="1" parent="1">
          <mxGeometry x="700" y="210" width="100" height="40" as="geometry" />
        </mxCell>
        <mxCell id="ERHW8LR5gOBoUxM93l3d-13" value="PhotoURL" style="ellipse;whiteSpace=wrap;html=1;align=center;" vertex="1" parent="1">
          <mxGeometry x="660" y="270" width="100" height="40" as="geometry" />
        </mxCell>
        <mxCell id="ERHW8LR5gOBoUxM93l3d-14" value="LastMessage" style="ellipse;whiteSpace=wrap;html=1;align=center;" vertex="1" parent="1">
          <mxGeometry x="10" y="150" width="100" height="40" as="geometry" />
        </mxCell>
        <mxCell id="ERHW8LR5gOBoUxM93l3d-20" value="ID" style="ellipse;whiteSpace=wrap;html=1;align=center;fontStyle=4;" vertex="1" parent="1">
          <mxGeometry x="670" y="80" width="100" height="40" as="geometry" />
        </mxCell>
        <mxCell id="ERHW8LR5gOBoUxM93l3d-21" style="rounded=0;orthogonalLoop=1;jettySize=auto;html=1;exitX=1;exitY=0;exitDx=0;exitDy=0;entryX=0.03;entryY=0.725;entryDx=0;entryDy=0;entryPerimeter=0;endArrow=none;startFill=0;" edge="1" parent="1" source="ERHW8LR5gOBoUxM93l3d-4" target="ERHW8LR5gOBoUxM93l3d-20">
          <mxGeometry relative="1" as="geometry" />
        </mxCell>
        <mxCell id="ERHW8LR5gOBoUxM93l3d-24" value="ID" style="ellipse;whiteSpace=wrap;html=1;align=center;fontStyle=4;" vertex="1" parent="1">
          <mxGeometry x="150" y="50" width="100" height="40" as="geometry" />
        </mxCell>
        <mxCell id="ERHW8LR5gOBoUxM93l3d-26" style="rounded=0;orthogonalLoop=1;jettySize=auto;html=1;exitX=0.25;exitY=0;exitDx=0;exitDy=0;entryX=0.758;entryY=0.992;entryDx=0;entryDy=0;entryPerimeter=0;endArrow=none;startFill=0;" edge="1" parent="1" source="ERHW8LR5gOBoUxM93l3d-2" target="ERHW8LR5gOBoUxM93l3d-10">
          <mxGeometry relative="1" as="geometry" />
        </mxCell>
        <mxCell id="ERHW8LR5gOBoUxM93l3d-28" value="LastTimestamp" style="ellipse;whiteSpace=wrap;html=1;align=center;" vertex="1" parent="1">
          <mxGeometry x="10" y="210" width="100" height="40" as="geometry" />
        </mxCell>
        <mxCell id="ERHW8LR5gOBoUxM93l3d-42" style="rounded=0;orthogonalLoop=1;jettySize=auto;html=1;exitX=0;exitY=0.5;exitDx=0;exitDy=0;entryX=1;entryY=0.5;entryDx=0;entryDy=0;endArrow=none;startFill=0;" edge="1" parent="1" source="ERHW8LR5gOBoUxM93l3d-30" target="ERHW8LR5gOBoUxM93l3d-3">
          <mxGeometry relative="1" as="geometry" />
        </mxCell>
        <mxCell id="ERHW8LR5gOBoUxM93l3d-30" value="SenderID" style="ellipse;whiteSpace=wrap;html=1;align=center;" vertex="1" parent="1">
          <mxGeometry x="500" y="440" width="100" height="40" as="geometry" />
        </mxCell>
        <mxCell id="ERHW8LR5gOBoUxM93l3d-43" style="rounded=0;orthogonalLoop=1;jettySize=auto;html=1;exitX=0;exitY=0.5;exitDx=0;exitDy=0;entryX=1;entryY=0;entryDx=0;entryDy=0;endArrow=none;startFill=0;" edge="1" parent="1" source="ERHW8LR5gOBoUxM93l3d-31" target="ERHW8LR5gOBoUxM93l3d-3">
          <mxGeometry relative="1" as="geometry" />
        </mxCell>
        <mxCell id="ERHW8LR5gOBoUxM93l3d-31" value="ID" style="ellipse;whiteSpace=wrap;html=1;align=center;fontStyle=4;" vertex="1" parent="1">
          <mxGeometry x="500" y="380" width="100" height="40" as="geometry" />
        </mxCell>
        <mxCell id="ERHW8LR5gOBoUxM93l3d-41" style="rounded=0;orthogonalLoop=1;jettySize=auto;html=1;exitX=0;exitY=0;exitDx=0;exitDy=0;entryX=1;entryY=1;entryDx=0;entryDy=0;endArrow=none;startFill=0;" edge="1" parent="1" source="ERHW8LR5gOBoUxM93l3d-32" target="ERHW8LR5gOBoUxM93l3d-3">
          <mxGeometry relative="1" as="geometry" />
        </mxCell>
        <mxCell id="ERHW8LR5gOBoUxM93l3d-32" value="ReceiveID" style="ellipse;whiteSpace=wrap;html=1;align=center;" vertex="1" parent="1">
          <mxGeometry x="470" y="490" width="100" height="40" as="geometry" />
        </mxCell>
        <mxCell id="ERHW8LR5gOBoUxM93l3d-40" style="rounded=0;orthogonalLoop=1;jettySize=auto;html=1;entryX=0.5;entryY=1;entryDx=0;entryDy=0;endArrow=none;startFill=0;" edge="1" parent="1" source="ERHW8LR5gOBoUxM93l3d-33" target="ERHW8LR5gOBoUxM93l3d-3">
          <mxGeometry relative="1" as="geometry" />
        </mxCell>
        <mxCell id="ERHW8LR5gOBoUxM93l3d-33" value="Content" style="ellipse;whiteSpace=wrap;html=1;align=center;" vertex="1" parent="1">
          <mxGeometry x="375" y="510" width="100" height="40" as="geometry" />
        </mxCell>
        <mxCell id="ERHW8LR5gOBoUxM93l3d-39" style="rounded=0;orthogonalLoop=1;jettySize=auto;html=1;exitX=1;exitY=0;exitDx=0;exitDy=0;entryX=0;entryY=1;entryDx=0;entryDy=0;endArrow=none;endFill=1;startFill=0;" edge="1" parent="1" source="ERHW8LR5gOBoUxM93l3d-34" target="ERHW8LR5gOBoUxM93l3d-3">
          <mxGeometry relative="1" as="geometry" />
        </mxCell>
        <mxCell id="ERHW8LR5gOBoUxM93l3d-34" value="timestamp" style="ellipse;whiteSpace=wrap;html=1;align=center;" vertex="1" parent="1">
          <mxGeometry x="155" y="500" width="100" height="40" as="geometry" />
        </mxCell>
        <mxCell id="ERHW8LR5gOBoUxM93l3d-38" style="rounded=0;orthogonalLoop=1;jettySize=auto;html=1;exitX=1;exitY=0.5;exitDx=0;exitDy=0;entryX=0;entryY=0.25;entryDx=0;entryDy=0;endArrow=none;startFill=0;" edge="1" parent="1" source="ERHW8LR5gOBoUxM93l3d-35" target="ERHW8LR5gOBoUxM93l3d-3">
          <mxGeometry relative="1" as="geometry" />
        </mxCell>
        <mxCell id="ERHW8LR5gOBoUxM93l3d-35" value="DeleteForReceiver" style="ellipse;whiteSpace=wrap;html=1;align=center;" vertex="1" parent="1">
          <mxGeometry x="145" y="420" width="110" height="60" as="geometry" />
        </mxCell>
        <mxCell id="ERHW8LR5gOBoUxM93l3d-37" style="rounded=0;orthogonalLoop=1;jettySize=auto;html=1;exitX=1;exitY=1;exitDx=0;exitDy=0;entryX=0;entryY=0;entryDx=0;entryDy=0;endArrow=none;startFill=0;" edge="1" parent="1" source="ERHW8LR5gOBoUxM93l3d-36" target="ERHW8LR5gOBoUxM93l3d-3">
          <mxGeometry relative="1" as="geometry" />
        </mxCell>
        <mxCell id="ERHW8LR5gOBoUxM93l3d-36" value="DeleteForSender" style="ellipse;whiteSpace=wrap;html=1;align=center;" vertex="1" parent="1">
          <mxGeometry x="130" y="350" width="110" height="60" as="geometry" />
        </mxCell>
        <mxCell id="ERHW8LR5gOBoUxM93l3d-46" value="type" style="ellipse;whiteSpace=wrap;html=1;align=center;" vertex="1" parent="1">
          <mxGeometry x="275" y="520" width="100" height="40" as="geometry" />
        </mxCell>
        <mxCell id="ERHW8LR5gOBoUxM93l3d-52" style="rounded=0;orthogonalLoop=1;jettySize=auto;html=1;exitX=0.5;exitY=1;exitDx=0;exitDy=0;entryX=0.75;entryY=0;entryDx=0;entryDy=0;endArrow=none;startFill=0;" edge="1" parent="1" source="ERHW8LR5gOBoUxM93l3d-50" target="ERHW8LR5gOBoUxM93l3d-3">
          <mxGeometry relative="1" as="geometry" />
        </mxCell>
        <mxCell id="ERHW8LR5gOBoUxM93l3d-54" value="N" style="edgeLabel;html=1;align=center;verticalAlign=middle;resizable=0;points=[];" vertex="1" connectable="0" parent="ERHW8LR5gOBoUxM93l3d-52">
          <mxGeometry x="-0.0979" y="2" relative="1" as="geometry">
            <mxPoint as="offset" />
          </mxGeometry>
        </mxCell>
        <mxCell id="ERHW8LR5gOBoUxM93l3d-50" value="Có" style="shape=rhombus;perimeter=rhombusPerimeter;whiteSpace=wrap;html=1;align=center;" vertex="1" parent="1">
          <mxGeometry x="425" y="260" width="120" height="60" as="geometry" />
        </mxCell>
      </root>
    </mxGraphModel>
  </diagram>
</mxfile>
